<?xml version="1.0" encoding="UTF-8" standalone="no"?>
<!-- Created with Inkscape (http://www.inkscape.org/) -->

<svg
 xmlns:dc="http://purl.org/dc/elements/1.1/"
 xmlns:cc="http://creativecommons.org/ns#"
 xmlns:rdf="http://www.w3.org/1999/02/22-rdf-syntax-ns#"
 xmlns:svg="http://www.w3.org/2000/svg"
 xmlns="http://www.w3.org/2000/svg"
 xmlns:sodipodi="http://sodipodi.sourceforge.net/DTD/sodipodi-0.dtd"
 xmlns:inkscape="http://www.inkscape.org/namespaces/inkscape"
 width="744.09448819"
 height="1052.3622047"
 id="svg2"
 version="1.1"
 inkscape:version="0.48.4 r"
 sodipodi:docname="apples.svg">
<defs
 id="defs4">
<inkscape:path-effect
 effect="spiro"
 id="path-effect4001"
 is_visible="true" />
<inkscape:path-effect
 effect="spiro"
 id="path-effect3957"
 is_visible="true" />
<inkscape:path-effect
 effect="skeletal"
 id="path-effect3953"
 is_visible="true"
 pattern="M 0,5 10,10 10,0 z"
 copytype="single_stretched"
 prop_scale="1"
 scale_y_rel="false"
 spacing="0"
 normal_offset="0"
 tang_offset="0"
 prop_units="false"
 vertical_pattern="false"
 fuse_tolerance="0" />
<inkscape:path-effect
 effect="spiro"
 id="path-effect3951"
 is_visible="true" />
<inkscape:path-effect
 effect="skeletal"
 id="path-effect3933"
 is_visible="true"
 pattern="m -137.56905,-170.13813 10,5 0,-10 z"
 copytype="single_stretched"
 prop_scale="1"
 scale_y_rel="false"
 spacing="0"
 normal_offset="0"
 tang_offset="0"
 prop_units="false"
 vertical_pattern="false"
 fuse_tolerance="0" />
<inkscape:path-effect
 effect="spiro"
 id="path-effect3931"
 is_visible="true" />
<inkscape:path-effect
 effect="skeletal"
 id="path-effect3927"
 is_visible="true"
 pattern="M 0,5 10,10 10,0 z"
 copytype="single_stretched"
 prop_scale="1"
 scale_y_rel="false"
 spacing="0"
 normal_offset="0"
 tang_offset="0"
 prop_units="false"
 vertical_pattern="false"
 fuse_tolerance="0" />
<inkscape:path-effect
 effect="skeletal"
 id="path-effect3923"
 is_visible="true"
 pattern="M 0,5 C 0,2.24 2.24,0 5,0 7.76,0 10,2.24 10,5 10,7.76 7.76,10 5,10 2.24,10 0,7.76 0,5 z"
 copytype="single_stretched"
 prop_scale="1"
 scale_y_rel="false"
 spacing="0"
 normal_offset="0"
 tang_offset="0"
 prop_units="false"
 vertical_pattern="false"
 fuse_tolerance="0" />
<inkscape:path-effect
 effect="skeletal"
 id="path-effect3915"
 is_visible="true"
 pattern="m -167.9558,-23.176796 c 0,-2.76 2.24,-5 5,-5 2.76,0 5,2.24 5,5 0,2.76 -2.24,5 -5,5 -2.76,0 -5,-2.24 -5,-5 z"
 copytype="single_stretched"
 prop_scale="1"
 scale_y_rel="false"
 spacing="0"
 normal_offset="0"
 tang_offset="0"
 prop_units="false"
 vertical_pattern="false"
 fuse_tolerance="0" />
<inkscape:path-effect
 effect="skeletal"
 id="path-effect3911"
 is_visible="true"
 pattern="M 0,0 0,10 10,5 z"
 copytype="single_stretched"
 prop_scale="1"
 scale_y_rel="false"
 spacing="0"
 normal_offset="0"
 tang_offset="0"
 prop_units="false"
 vertical_pattern="false"
 fuse_tolerance="0" />
<inkscape:path-effect
 effect="skeletal"
 id="path-effect3907"
 is_visible="true"
 pattern="M 0,0 0,10 10,5 z"
 copytype="single_stretched"
 prop_scale="1"
 scale_y_rel="false"
 spacing="0"
 normal_offset="0"
 tang_offset="0"
 prop_units="false"
 vertical_pattern="false"
 fuse_tolerance="0" />
<inkscape:path-effect
 effect="spiro"
 id="path-effect3905"
 is_visible="true" />
<inkscape:path-effect
 effect="skeletal"
 id="path-effect3901"
 is_visible="true"
 pattern="m -132.59669,-129.28177 0,10 10,-5 z"
 copytype="single_stretched"
 prop_scale="1"
 scale_y_rel="false"
 spacing="0"
 normal_offset="0"
 tang_offset="0"
 prop_units="false"
 vertical_pattern="false"
 fuse_tolerance="0" />
<inkscape:path-effect
 effect="skeletal"
 id="path-effect3897"
 is_visible="true"
 pattern="m -140.88397,-145.85635 0,10 10,-5 z"
 copytype="single_stretched"
 prop_scale="1"
 scale_y_rel="false"
 spacing="0"
 normal_offset="0"
 tang_offset="0"
 prop_units="false"
 vertical_pattern="false"
 fuse_tolerance="0" />
</defs>
<sodipodi:namedview
 id="base"
 pagecolor="#ffffff"
 bordercolor="#666666"
 borderopacity="1.0"
 inkscape:pageopacity="0.0"
 inkscape:pageshadow="2"
 inkscape:zoom="1.81"
 inkscape:cx="97.125"
 inkscape:cy="914.54632"
 inkscape:document-units="px"
 inkscape:current-layer="layer1"
 showgrid="false"
 inkscape:window-width="1280"
 inkscape:window-height="965"
 inkscape:window-x="-8"
 inkscape:window-y="-8"
 inkscape:window-maximized="1" />
<metadata
 id="metadata7">
<rdf:RDF>
<cc:Work
 rdf:about="">
<dc:format>image/svg+xml</dc:format>
<dc:type
 rdf:resource="http://purl.org/dc/dcmitype/StillImage" />
<dc:title></dc:title>
</cc:Work>
</rdf:RDF>
</metadata>
<g
 inkscape:label="Layer 1"
 inkscape:groupmode="layer"
 id="layer1">
<path
 style="fill:#000000;stroke:#000000;stroke-width:0.11022564px;stroke-linecap:butt;stroke-linejoin:miter;stroke-opacity:1"
 d="m 213.87972,12.44861 c 0.63699,-0.88964 3.65887,-4.6910798 5.95485,-5.0924898 2.29598,-0.40141 4.22111,1.80014 6.87458,1.74579 3.979,-0.70848 7.04661,-2.20635 9.43666,-0.38879 0.87218,0.60928 2.0741,2.6319798 2.53468,3.2188098 0.46057,0.58683 2.59892,6.28826 0.70313,12.11657 -1.36052,4.18272 -6.1382,8.45784 -7.57137,10.98678 -2.07462,2.47907 -2.99859,1.07322 -4.97408,0.16652 -0.61018,-0.25928 -1.42419,0.0657 -1.67754,0.067 -0.25335,10e-4 -1.65329,1.34761 -2.50426,0.96264 -4.12036,-1.86402 -8.27963,-8.28521 -9.99279,-14.10961 -1.36341,-4.63531 0.57915,-8.78354 1.21614,-9.67318 z"
 id="path3771"
 inkscape:connector-curvature="0"
 sodipodi:nodetypes="zzcczscczssz" />
<g
 id="g3935"
 transform="matrix(0.27251103,0,0,0.27251103,18.907524,78.90172)"
 inkscape:export-filename="E:\Projects\Unity\SpottyRunner\Assets\Textures\apple.png"
 inkscape:export-xdpi="90"
 inkscape:export-ydpi="90">
<path
 inkscape:connector-curvature="0"
 id="path3777"
 d="m 160.34904,224.33998 c -1.30737,-0.43077 -5.57921,-2.48585 -9.49296,-4.56686 -6.46145,-3.43566 -7.41956,-3.77523 -10.41751,-3.69214 -4.86779,0.13493 -8.73234,1.16423 -11.50384,3.064 -4.00644,2.74627 -8.5295,4.81652 -10.5231,4.81652 -4.66865,0 -14.96139,-7.16664 -25.533013,-17.77814 C 75.661611,188.90141 60.743748,164.24084 50.652863,136.3804 43.359466,116.24371 42.360314,100.5396 47.169797,81.635635 50.999494,66.582782 56.293682,57.973631 70.605789,43.525199 82.231693,31.788551 90.903658,26.226818 98.492448,25.640201 c 5.061002,-0.391218 10.235432,0.967996 20.799442,5.463578 17.15911,7.302165 21.28493,7.785319 36.30305,4.251271 22.33166,-5.25506 25.73411,-5.85071 33.57583,-5.877943 6.17512,-0.02144 8.0217,0.190867 10.94588,1.25851 7.54159,2.753501 11.45745,6.331192 19.87502,18.158625 6.28847,8.835843 7.32789,10.723418 9.52135,17.290572 6.77429,20.282067 7.97277,45.941456 3.08359,66.020206 -4.35839,17.89895 -12.0964,30.61965 -36.77848,60.46105 -8.56375,10.35385 -12.39549,15.25316 -14.94826,19.11304 -2.68226,4.0557 -8.76015,10.24789 -11.40379,11.61826 -2.9658,1.53737 -6.27389,1.87939 -9.11704,0.94261 l 0,0 z"
 style="fill:#d40000;fill-opacity:1;fill-rule:nonzero;stroke:none" />
<path
 inkscape:connector-curvature="0"
 id="path3777-7"
 d="m 100.95237,35.797127 c -0.28909,0.0095 -0.57593,0.02096 -0.86304,0.04315 -6.88818,0.532463 -14.756037,5.593607 -25.308623,16.246713 -6.274896,6.334666 -10.623752,11.43087 -13.851777,16.548774 9.922906,-9.7924 17.446471,-14.484288 24.057214,-14.995303 4.593767,-0.355103 9.290254,0.881928 18.878986,4.962474 15.57495,6.628016 19.31488,7.069878 32.94651,3.862101 20.26998,-4.769907 23.3691,-5.304543 30.48685,-5.329267 5.60503,-0.01946 7.27074,0.174451 9.92495,1.143527 6.84535,2.499292 10.41865,5.748537 18.0591,16.484046 5.70791,8.020106 6.63944,9.724865 8.63039,15.68573 6.14888,18.409598 7.24267,41.713008 2.80488,59.938068 -3.95603,16.2465 -10.97464,27.78131 -33.37804,54.86771 -3.18259,3.84785 -5.5292,6.72839 -7.48686,9.19137 2.71836,-2.06952 6.96164,-6.53403 9.01876,-9.64446 2.31709,-3.50354 5.79815,-7.94913 13.57129,-17.34708 22.40339,-27.08642 29.42201,-38.62123 33.37804,-54.86772 4.43779,-18.22506 3.344,-41.528473 -2.80489,-59.938063 -1.99095,-5.960867 -2.92249,-7.665624 -8.63039,-15.685736 -7.64044,-10.735509 -11.21375,-13.984755 -18.05909,-16.484047 -2.65421,-0.969075 -4.31992,-1.162996 -9.92495,-1.143526 -7.11777,0.02471 -10.21688,0.55936 -30.48685,5.329266 -13.63163,3.207778 -17.37156,2.765916 -32.94652,-3.862099 -8.98944,-3.825515 -13.67969,-5.147739 -18.01594,-5.005627 z"
 style="fill:#ff2a2a;fill-opacity:1;fill-rule:nonzero;stroke:none" />
<path
 inkscape:connector-curvature="0"
 id="path3777-0"
 d="m 186.70662,37.976934 c -4.97401,0.01727 -7.84966,0.335826 -17.53801,2.516408 0.50443,0.334825 0.99379,0.670374 1.47911,1.018089 3.24607,-0.527341 5.45538,-0.642972 8.37522,-0.653114 4.99019,-0.01733 6.47318,0.155315 8.83624,1.018088 1.06907,0.390332 2.05019,0.805122 2.97743,1.267809 0.0133,0.0049 0.0251,0.01457 0.0384,0.01918 15.87759,5.587104 28.5324,24.024855 33.00144,47.73491 -0.63667,-8.095148 -2.17677,-16.09167 -4.57181,-23.262369 -1.77257,-5.306994 -2.60192,-6.824749 -7.6837,-13.965102 -6.80234,-9.557886 -9.98366,-12.450708 -16.07811,-14.675842 -2.36306,-0.862774 -3.84606,-1.035424 -8.83624,-1.018089 z"
 style="fill:#f2f2f2;fill-opacity:1;fill-rule:nonzero;stroke:none" />
<path
 inkscape:connector-curvature="0"
 id="path3777-0-8"
 d="m 124.50517,212.76914 c 3.50944,-1.02181 5.47574,-1.83045 11.87563,-5.33699 -0.42421,-0.13408 -0.83793,-0.27175 -1.25127,-0.41881 -2.18554,1.0313 -3.72241,1.5614 -5.78252,2.16122 -3.52086,1.02508 -4.60328,1.20419 -6.44733,1.07448 -0.83427,-0.0587 -1.61138,-0.1525 -2.36016,-0.29107 -0.0103,-2.2e-4 -0.0207,-0.005 -0.031,-0.006 -12.34775,-0.72322 -25.027699,-11.17648 -32.996506,-27.01485 2.092755,5.58806 4.803542,10.92308 7.950528,15.50132 2.32906,3.38833 3.222861,4.29193 8.261218,8.30342 6.74422,5.36965 9.57823,6.76701 14.33413,7.10153 1.84406,0.1297 2.92648,-0.0494 6.44733,-1.07449 z"
 style="fill:#f2f2f2;fill-opacity:1;fill-rule:nonzero;stroke:none" />
<path
 inkscape:connector-curvature="0"
 inkscape:original-d="m 119.14254,59.192458 38.40631,-0.400886"
 inkscape:path-effect="#path-effect3915"
 id="path3913"
 d="m 119.14254,59.192458 c -0.0288,-2.75985 8.55083,-5.089526 19.15097,-5.200171 10.60014,-0.110644 19.22653,2.039435 19.25534,4.799285 0.0288,2.75985 -8.55083,5.089526 -19.15097,5.200171 -10.60014,0.110644 -19.22653,-2.039435 -19.25534,-4.799285 z"
 style="fill:#d40000;fill-rule:evenodd;stroke:none" />
<path
 sodipodi:nodetypes="czc"
 inkscape:connector-curvature="0"
 inkscape:original-d="m 139.79126,58.607483 c 0,0 -3.87848,-13.447497 -0.51388,-21.835328 3.36461,-8.387825 23.82106,-24.841273 23.82106,-24.841273"
 inkscape:path-effect="#path-effect3931;#path-effect3933"
 id="path3929"
 d="m 139.79126,58.607483 c -1.75442,-7.207484 -1.20751,-14.759553 1.32599,-21.31066 4.06259,-10.546762 13.55337,-18.432174 23.55268,-20.619318 L 161.52695,7.1842587 C 148.8872,12.492329 139.9147,23.860944 137.43751,36.247487 c -1.51992,7.66319 -0.60944,15.559604 2.35375,22.359996 z"
 style="fill:#552200;fill-rule:evenodd;stroke:#552200;stroke-width:5;stroke-miterlimit:4;stroke-opacity:1;stroke-dasharray:none" />
</g>
<g
 id="g4039"
 transform="matrix(0.44752287,0,0,0.44752287,32.884736,-62.889063)"
 inkscape:export-filename="E:\Projects\Unity\SpottyRunner\Assets\Textures\Collectibles\bomb.png"
 inkscape:export-xdpi="90"
 inkscape:export-ydpi="90">
<path
 inkscape:connector-curvature="0"
 id="path3959"
 d="m 51.933193,122.44009 -12.707825,-17.8161 2.462905,-1.84349 2.462904,-1.84348 1.138241,1.64677 c 0.626032,0.90574 6.273935,8.85069 12.550895,17.65546 6.276961,8.80477 11.426403,16.26034 11.443204,16.56792 0.02724,0.49874 -3.649613,3.3948 -4.359284,3.43357 -0.155767,0.009 -6.001735,-8.00177 -12.99104,-17.80065 z"
 style="fill:#d45500;fill-opacity:1;fill-rule:nonzero;stroke:none" />
<path
 transform="matrix(0.71024202,0,0,0.71024202,0.37869466,39.379597)"
 d="m 218.23204,191.86494 c 0,43.17586 -35.2483,78.1768 -78.72928,78.1768 -43.480978,0 -78.729277,-35.00094 -78.729277,-78.1768 0,-43.17585 35.248299,-78.17679 78.729277,-78.17679 43.48098,0 78.72928,35.00094 78.72928,78.17679 z"
 sodipodi:ry="78.176796"
 sodipodi:rx="78.729279"
 sodipodi:cy="191.86494"
 sodipodi:cx="139.50276"
 id="path3943"
 style="color:#000000;fill:#000000;fill-opacity:1;fill-rule:nonzero;stroke:none;stroke-width:0.44999999;marker:none;visibility:visible;display:inline;overflow:visible;enable-background:accumulate"
 sodipodi:type="arc" />
<path
 inkscape:connector-curvature="0"
 id="path3945"
 d="m 93.851296,230.64797 c -9.05126,-0.9401 -17.702662,-4.07768 -25.38297,-9.20555 -12.906098,-8.61694 -21.324982,-21.73501 -23.992535,-37.38449 -0.779496,-4.573 -0.55979,-15.23111 0.402468,-19.52399 5.805469,-25.89969 28.264851,-44.09412 54.484167,-44.13785 26.314724,-0.0439 48.849494,18.14785 54.675204,44.13785 0.96227,4.29288 1.18196,14.95099 0.40247,19.52399 -3.61496,21.20756 -18.28744,38.07417 -38.63052,44.40734 -6.40632,1.9944 -15.27939,2.87641 -21.958284,2.1827 l 0,0 z"
 style="fill:#483737;fill-opacity:1;fill-rule:nonzero;stroke:none" />
<rect
 transform="matrix(0.79823419,-0.60234723,0.60234723,0.79823419,0,0)"
 y="135.5616"
 x="-43.325363"
 height="23.936333"
 width="28.645121"
 id="rect3947"
 style="fill:#483737;fill-opacity:1;fill-rule:nonzero;stroke:none" />
<path
 inkscape:connector-curvature="0"
 id="path3945-8"
 d="m 90.167803,124.1334 c -3.098899,0.6627 -6.027192,1.68941 -8.766155,3.03261 4.202211,0.0954 8.512542,0.62777 12.83663,1.61059 22.243762,5.0558 38.789632,20.80065 40.930022,38.62502 0.51636,-2.82123 0.73988,-5.73634 0.62013,-8.70831 -0.12699,-3.15133 -1.77327,-10.19935 -3.0191,-12.91855 -7.54245,-16.46267 -25.10689,-25.38439 -42.601527,-21.64136 z"
 style="fill:#ac9393;fill-opacity:1;fill-rule:nonzero;stroke:none" />
<path
 inkscape:connector-curvature="0"
 id="path3959-5"
 d="m 44.228115,115.99489 -10.706193,-2.995 0.386372,-1.51434 0.386371,-1.51434 0.975211,0.28843 c 0.536366,0.15864 5.303177,1.50031 10.592912,2.9815 5.289731,1.48118 9.703376,2.78821 9.808078,2.90451 0.169752,0.1886 -0.361147,2.50626 -0.629474,2.74784 -0.05843,0.0536 -4.924859,-1.25133 -10.813277,-2.8986 z"
 style="fill:#d45500;fill-opacity:1;fill-rule:nonzero;stroke:none" />
<path
 inkscape:connector-curvature="0"
 id="path3959-5-1"
 d="m 49.888393,108.21786 0.254101,-11.114313 1.562853,-1.61e-4 1.562849,-1.57e-4 -0.03828,1.016247 c -0.02106,0.558942 -0.14212,5.509494 -0.269034,11.001214 -0.126917,5.49173 -0.30176,10.09151 -0.38855,10.22172 -0.140753,0.21113 -2.517711,0.26992 -2.818158,0.0697 -0.06608,-0.0437 -0.0056,-5.08136 0.134214,-11.19424 z"
 style="fill:#d45500;fill-opacity:1;fill-rule:nonzero;stroke:none" />
</g>
</g>
</svg>
