<?xml version="1.0" encoding="UTF-8" standalone="no"?>
<!-- Created with Inkscape (http://www.inkscape.org/) -->

<svg
   xmlns:dc="http://purl.org/dc/elements/1.1/"
   xmlns:cc="http://creativecommons.org/ns#"
   xmlns:rdf="http://www.w3.org/1999/02/22-rdf-syntax-ns#"
   xmlns:svg="http://www.w3.org/2000/svg"
   xmlns="http://www.w3.org/2000/svg"
   xmlns:sodipodi="http://sodipodi.sourceforge.net/DTD/sodipodi-0.dtd"
   xmlns:inkscape="http://www.inkscape.org/namespaces/inkscape"
   width="744.09448819"
   height="1052.3622047"
   id="svg2"
   version="1.1"
   inkscape:version="0.48.4 r9939"
   sodipodi:docname="fug.svg">
  <defs
     id="defs4">
    <inkscape:path-effect
       effect="skeletal"
       id="path-effect3802"
       is_visible="true"
       pattern="M 0,0 0,10 10,5 z"
       copytype="single_stretched"
       prop_scale="1"
       scale_y_rel="false"
       spacing="0"
       normal_offset="0"
       tang_offset="0"
       prop_units="false"
       vertical_pattern="false"
       fuse_tolerance="0" />
    <inkscape:path-effect
       effect="skeletal"
       id="path-effect3798"
       is_visible="true"
       pattern="m 56.097561,-29.268293 0,10 10,-5 z"
       copytype="single_stretched"
       prop_scale="1"
       scale_y_rel="false"
       spacing="0"
       normal_offset="0"
       tang_offset="0"
       prop_units="false"
       vertical_pattern="false"
       fuse_tolerance="0" />
  </defs>
  <sodipodi:namedview
     id="base"
     pagecolor="#ffffff"
     bordercolor="#666666"
     borderopacity="1.0"
     inkscape:pageopacity="0.0"
     inkscape:pageshadow="2"
     inkscape:zoom="0.82"
     inkscape:cx="249.95086"
     inkscape:cy="829.40766"
     inkscape:document-units="px"
     inkscape:current-layer="layer1"
     showgrid="false"
     inkscape:window-width="1366"
     inkscape:window-height="705"
     inkscape:window-x="-8"
     inkscape:window-y="-8"
     inkscape:window-maximized="1" />
  <metadata
     id="metadata7">
    <rdf:RDF>
      <cc:Work
         rdf:about="">
        <dc:format>image/svg+xml</dc:format>
        <dc:type
           rdf:resource="http://purl.org/dc/dcmitype/StillImage" />
        <dc:title />
      </cc:Work>
    </rdf:RDF>
  </metadata>
  <g
     inkscape:label="Layer 1"
     inkscape:groupmode="layer"
     id="layer1">
    <path
       style="color:#000000;fill:#ffffff;fill-opacity:1;stroke:#999999;stroke-width:2;stroke-linecap:butt;stroke-linejoin:miter;stroke-miterlimit:4;stroke-opacity:1;stroke-dasharray:none;stroke-dashoffset:0;marker:none;visibility:visible;display:inline;overflow:visible;enable-background:accumulate"
       d="m 107.13982,-22.025925 c -10.867896,0 -19.684926,8.556787 -19.684926,19.1190064 0,0.266644 0.0144,0.537953 0.0256,0.801934 -4.07191,1.32542999 -6.99568,4.9162 -6.99568,9.13944 0,5.1051566 4.26534,9.2896126 9.67651,9.6613306 -0.44962,1.167375 -0.70212,2.434645 -0.70212,3.755065 0,5.89839 4.90009,10.679662 10.953086,10.679662 2.88632,0 5.51064,-1.08693 7.46801,-2.864032 3.22047,2.707342 7.39311,4.353322 11.9616,4.353322 10.18006,0 18.43387,-8.125332 18.43387,-18.138865 0,-1.528302 -0.19972,-3.011843 -0.5617,-4.429703 1.91764,-2.5126496 3.05103,-5.6134556 3.05103,-8.9739656 0,-6.596265 -4.37361,-12.2017934 -10.46798,-14.2819704 8.1e-4,-0.04277 0.0128,-0.08436 0.0128,-0.12729 0,-3.429295 -3.01325,-6.211766 -6.7276,-6.211766 -1.68485,0 -3.22416,0.569602 -4.40421,1.514751 -3.32855,-2.507248 -7.50097,-3.996919 -12.03819,-3.996919 z"
       id="path3826"
       inkscape:connector-curvature="0" />
    <path
       style="color:#000000;fill:#ffffff;fill-opacity:1;stroke:#999999;stroke-width:2;stroke-linecap:butt;stroke-linejoin:miter;stroke-miterlimit:4;stroke-opacity:1;stroke-dasharray:none;stroke-dashoffset:0;marker:none;visibility:visible;display:inline;overflow:visible;enable-background:accumulate"
       d="m 221.1674,40.157775 c -10.73217,0 -19.43126,8.10133 -19.43126,18.08156 0,0.88988 0.0656,1.7686 0.19918,2.62403 -1.21972,1.83595 -1.92542,4.05015 -1.92542,6.416744 0,6.41587 5.22387,11.59867 11.66318,11.59867 1.82159,0 3.53218,-0.42651 5.06806,-1.16869 1.96241,2.79745 5.14894,4.60858 8.74185,4.60858 4.81383,0 8.89862,-3.25257 10.29106,-7.76183 8.92956,-0.38427 16.04517,-7.14982 16.04517,-15.457534 0,-8.55448 -7.54067,-15.50162 -16.8419,-15.50162 -0.74936,0 -1.48966,0.0451 -2.21313,0.13231 -3.23777,-2.24413 -7.24818,-3.57222 -11.59679,-3.57222 z"
       id="path3852"
       inkscape:connector-curvature="0" />
    <path
       style="fill:#ffffff;fill-opacity:1;fill-rule:evenodd;stroke:#999999;stroke-width:2;stroke-linecap:round;stroke-linejoin:round;stroke-miterlimit:4;stroke-opacity:1;stroke-dasharray:none"
       d="m 52.701093,85.809832 c -2.578837,-0.91948 -5.906889,-2.81613 -7.395672,-4.21477 -1.488783,-1.39863 -4.281782,-2.54298 -6.206665,-2.54298 -5.345145,0 -13.645942,-4.58506 -16.416469,-9.067872 -3.563781,-5.76632 -4.117031,-10.314895 -1.982656,-16.300534 1.751396,-4.911615 1.717152,-5.533122 -0.536548,-9.738038 -2.877718,-5.369199 -2.950283,-6.647671 -0.631795,-11.131133 1.949889,-3.770669 8.456263,-7.420957 13.227322,-7.420957 2.166167,0 3.747247,-1.183616 5.460957,-4.088139 4.288878,-7.269107 17.183306,-11.5212953 23.823662,-7.856316 1.465053,0.808599 6.344781,1.823316 10.843841,2.254928 13.903694,1.333834 21.384944,9.582274 20.168954,22.237269 -0.33329,3.468698 0.15856,8.01693 1.19069,11.01042 2.29994,6.670541 0.58558,12.66503 -5.17637,18.09986 -2.33279,2.20034 -4.24143,4.71748 -4.24143,5.59364 0,0.876152 -2.33232,3.921952 -5.18293,6.768432 -7.686154,7.67503 -17.09442,9.90836 -26.944891,6.39619 z"
       id="path3866"
       inkscape:connector-curvature="0" />
    <path
       style="color:#000000;fill:#ffffff;fill-opacity:1;stroke:#999999;stroke-width:2;stroke-linecap:butt;stroke-linejoin:miter;stroke-miterlimit:4;stroke-opacity:1;stroke-dasharray:none;stroke-dashoffset:0;marker:none;visibility:visible;display:inline;overflow:visible;enable-background:accumulate"
       d="m 306.03841,37.740857 c -5.25599,0 -9.7314,3.51633 -11.38593,8.42654 -7.18782,0.24606 -12.93678,6.1467 -12.93678,13.39026 0,7.39986 6.00372,13.40006 13.40792,13.40006 1.3916,0 2.73289,-0.21493 3.99489,-0.6082 1.46344,0.8741 3.17708,1.37336 5.00589,1.37336 5.39449,0 9.76638,-4.36934 9.76638,-9.76067 0,-1.22278 -0.22719,-2.39395 -0.63799,-3.47263 2.94221,-2.30378 4.84883,-5.98103 4.84883,-10.12362 0,-6.97701 -5.39942,-12.6251 -12.06321,-12.6251 z"
       id="path3848"
       inkscape:connector-curvature="0" />
  </g>
</svg>
