<?xml version="1.0" encoding="UTF-8" standalone="no"?>
<!-- Created with Inkscape (http://www.inkscape.org/) -->

<svg
   xmlns:dc="http://purl.org/dc/elements/1.1/"
   xmlns:cc="http://creativecommons.org/ns#"
   xmlns:rdf="http://www.w3.org/1999/02/22-rdf-syntax-ns#"
   xmlns:svg="http://www.w3.org/2000/svg"
   xmlns="http://www.w3.org/2000/svg"
   xmlns:sodipodi="http://sodipodi.sourceforge.net/DTD/sodipodi-0.dtd"
   xmlns:inkscape="http://www.inkscape.org/namespaces/inkscape"
   width="744.09448819"
   height="1052.3622047"
   id="svg2"
   version="1.1"
   inkscape:version="0.48.4 r9939"
   sodipodi:docname="game_icon.svg">
  <defs
     id="defs4" />
  <sodipodi:namedview
     id="base"
     pagecolor="#ffffff"
     bordercolor="#666666"
     borderopacity="1.0"
     inkscape:pageopacity="0.0"
     inkscape:pageshadow="2"
     inkscape:zoom="0.52233034"
     inkscape:cx="389.52011"
     inkscape:cy="565.41787"
     inkscape:document-units="px"
     inkscape:current-layer="layer1"
     showgrid="false"
     inkscape:window-width="1366"
     inkscape:window-height="705"
     inkscape:window-x="-8"
     inkscape:window-y="-8"
     inkscape:window-maximized="1" />
  <metadata
     id="metadata7">
    <rdf:RDF>
      <cc:Work
         rdf:about="">
        <dc:format>image/svg+xml</dc:format>
        <dc:type
           rdf:resource="http://purl.org/dc/dcmitype/StillImage" />
        <dc:title />
      </cc:Work>
    </rdf:RDF>
  </metadata>
  <g
     inkscape:label="Layer 1"
     inkscape:groupmode="layer"
     id="layer1">
    <path
       style="fill:#34b4da;fill-opacity:1;fill-rule:nonzero;stroke:none"
       d=""
       id="path3910"
       inkscape:connector-curvature="0" />
    <path
       style="fill:#f9f9f9;fill-opacity:1;fill-rule:nonzero;stroke:none"
       d=""
       id="path3948"
       inkscape:connector-curvature="0" />
    <rect
       style="fill:#f2f2f2;fill-opacity:1;fill-rule:evenodd;stroke:none"
       id="rect3149-0"
       width="512"
       height="512"
       x="124"
       y="223.69551" />
    <g
       id="g3107"
       transform="translate(862.99296,29.029165)">
      <path
         transform="matrix(1.6983825,0,0,1.8116079,-315.54925,-648.8486)"
         d="m 6.122448,684.0816 c 0,33.81336 -29.238547,61.2245 -65.306122,61.2245 -36.067575,0 -65.306126,-27.41114 -65.306126,-61.2245 0,-33.81335 29.238551,-61.22449 65.306126,-61.22449 36.067575,0 65.306122,27.41114 65.306122,61.22449 z"
         sodipodi:ry="61.224491"
         sodipodi:rx="65.306122"
         sodipodi:cy="684.0816"
         sodipodi:cx="-59.183674"
         id="path3079-1-16-11-6"
         style="color:#000000;fill:#cccccc;fill-opacity:0.32596687;fill-rule:nonzero;stroke:none;stroke-width:0.81824785;marker:none;visibility:visible;display:inline;overflow:visible;enable-background:accumulate"
         sodipodi:type="arc" />
      <path
         transform="matrix(0.99904853,0,0,1.0656517,-425.75702,-300.05388)"
         d="m 6.122448,684.0816 c 0,33.81336 -29.238547,61.2245 -65.306122,61.2245 -36.067575,0 -65.306126,-27.41114 -65.306126,-61.2245 0,-33.81335 29.238551,-61.22449 65.306126,-61.22449 36.067575,0 65.306122,27.41114 65.306122,61.22449 z"
         sodipodi:ry="61.224491"
         sodipodi:rx="65.306122"
         sodipodi:cy="684.0816"
         sodipodi:cx="-59.183674"
         id="path3079-1"
         style="color:#000000;fill:#999999;fill-opacity:0.41436462;fill-rule:nonzero;stroke:none;stroke-width:0.81824785;marker:none;visibility:visible;display:inline;overflow:visible;enable-background:accumulate"
         sodipodi:type="arc" />
      <path
         transform="matrix(0.69483825,0,0,0.74116077,-561.99594,108.41429)"
         d="m 6.122448,684.0816 c 0,33.81336 -29.238547,61.2245 -65.306122,61.2245 -36.067575,0 -65.306126,-27.41114 -65.306126,-61.2245 0,-33.81335 29.238551,-61.22449 65.306126,-61.22449 36.067575,0 65.306122,27.41114 65.306122,61.22449 z"
         sodipodi:ry="61.224491"
         sodipodi:rx="65.306122"
         sodipodi:cy="684.0816"
         sodipodi:cx="-59.183674"
         id="path3079-1-2"
         style="color:#000000;fill:#b3b3b3;fill-opacity:1;fill-rule:nonzero;stroke:none;stroke-width:0.81824785;marker:none;visibility:visible;display:inline;overflow:visible;enable-background:accumulate"
         sodipodi:type="arc" />
      <path
         transform="matrix(1.6983825,0,0,1.8116079,-446.39231,-776.42953)"
         d="m 6.122448,684.0816 c 0,33.81336 -29.238547,61.2245 -65.306122,61.2245 -36.067575,0 -65.306126,-27.41114 -65.306126,-61.2245 0,-33.81335 29.238551,-61.22449 65.306126,-61.22449 36.067575,0 65.306122,27.41114 65.306122,61.22449 z"
         sodipodi:ry="61.224491"
         sodipodi:rx="65.306122"
         sodipodi:cy="684.0816"
         sodipodi:cx="-59.183674"
         id="path3079-1-16-11"
         style="color:#000000;fill:#cccccc;fill-opacity:0.32596687;fill-rule:nonzero;stroke:none;stroke-width:0.81824785;marker:none;visibility:visible;display:inline;overflow:visible;enable-background:accumulate"
         sodipodi:type="arc" />
      <path
         transform="matrix(0.69483825,0,0,0.74116077,-437.53049,-30.1037)"
         d="m 6.122448,684.0816 c 0,33.81336 -29.238547,61.2245 -65.306122,61.2245 -36.067575,0 -65.306126,-27.41114 -65.306126,-61.2245 0,-33.81335 29.238551,-61.22449 65.306126,-61.22449 36.067575,0 65.306122,27.41114 65.306122,61.22449 z"
         sodipodi:ry="61.224491"
         sodipodi:rx="65.306122"
         sodipodi:cy="684.0816"
         sodipodi:cx="-59.183674"
         id="path3079-77"
         style="color:#000000;fill:#999999;fill-opacity:1;fill-rule:nonzero;stroke:none;stroke-width:0.81824785;marker:none;visibility:visible;display:inline;overflow:visible;enable-background:accumulate"
         sodipodi:type="arc" />
      <path
         transform="matrix(0.69483825,0,0,0.74116077,-523.49822,-225.73145)"
         d="m 6.122448,684.0816 c 0,33.81336 -29.238547,61.2245 -65.306122,61.2245 -36.067575,0 -65.306126,-27.41114 -65.306126,-61.2245 0,-33.81335 29.238551,-61.22449 65.306126,-61.22449 36.067575,0 65.306122,27.41114 65.306122,61.22449 z"
         sodipodi:ry="61.224491"
         sodipodi:rx="65.306122"
         sodipodi:cy="684.0816"
         sodipodi:cx="-59.183674"
         id="path3079-1-1-0"
         style="color:#000000;fill:#cccccc;fill-opacity:1;fill-rule:nonzero;stroke:none;stroke-width:0.81824785;marker:none;visibility:visible;display:inline;overflow:visible;enable-background:accumulate"
         sodipodi:type="arc" />
      <path
         transform="matrix(0.99904853,0,0,1.0656517,-360.95342,-463.76986)"
         d="m 6.122448,684.0816 c 0,33.81336 -29.238547,61.2245 -65.306122,61.2245 -36.067575,0 -65.306126,-27.41114 -65.306126,-61.2245 0,-33.81335 29.238551,-61.22449 65.306126,-61.22449 36.067575,0 65.306122,27.41114 65.306122,61.22449 z"
         sodipodi:ry="61.224491"
         sodipodi:rx="65.306122"
         sodipodi:cy="684.0816"
         sodipodi:cx="-59.183674"
         id="path3079-1-22-8"
         style="color:#000000;fill:#cccccc;fill-opacity:0.41436462;fill-rule:nonzero;stroke:none;stroke-width:0.81824785;marker:none;visibility:visible;display:inline;overflow:visible;enable-background:accumulate"
         sodipodi:type="arc" />
      <path
         transform="matrix(0.99904853,0,0,1.0656517,-302.7357,-393.50711)"
         d="m 6.122448,684.0816 c 0,33.81336 -29.238547,61.2245 -65.306122,61.2245 -36.067575,0 -65.306126,-27.41114 -65.306126,-61.2245 0,-33.81335 29.238551,-61.22449 65.306126,-61.22449 36.067575,0 65.306122,27.41114 65.306122,61.22449 z"
         sodipodi:ry="61.224491"
         sodipodi:rx="65.306122"
         sodipodi:cy="684.0816"
         sodipodi:cx="-59.183674"
         id="path3079-1-5-0"
         style="color:#000000;fill:#cccccc;fill-opacity:0.41436462;fill-rule:nonzero;stroke:none;stroke-width:0.81824785;marker:none;visibility:visible;display:inline;overflow:visible;enable-background:accumulate"
         sodipodi:type="arc" />
      <path
         transform="matrix(0.29971456,0,0,0.31969551,-662.99413,148.8038)"
         d="m 6.122448,684.0816 c 0,33.81336 -29.238547,61.2245 -65.306122,61.2245 -36.067575,0 -65.306126,-27.41114 -65.306126,-61.2245 0,-33.81335 29.238551,-61.22449 65.306126,-61.22449 36.067575,0 65.306122,27.41114 65.306122,61.22449 z"
         sodipodi:ry="61.224491"
         sodipodi:rx="65.306122"
         sodipodi:cy="684.0816"
         sodipodi:cx="-59.183674"
         id="path3079-77-9-4-0"
         style="color:#000000;fill:#b3b3b3;fill-opacity:1;fill-rule:nonzero;stroke:none;stroke-width:0.81824785;marker:none;visibility:visible;display:inline;overflow:visible;enable-background:accumulate"
         sodipodi:type="arc" />
      <path
         transform="matrix(0.29971456,0,0,0.31969551,-665.00173,353.56953)"
         d="m 6.122448,684.0816 c 0,33.81336 -29.238547,61.2245 -65.306122,61.2245 -36.067575,0 -65.306126,-27.41114 -65.306126,-61.2245 0,-33.81335 29.238551,-61.22449 65.306126,-61.22449 36.067575,0 65.306122,27.41114 65.306122,61.22449 z"
         sodipodi:ry="61.224491"
         sodipodi:rx="65.306122"
         sodipodi:cy="684.0816"
         sodipodi:cx="-59.183674"
         id="path3079-77-9-2-1"
         style="color:#000000;fill:#666666;fill-opacity:1;fill-rule:nonzero;stroke:none;stroke-width:0.81824785;marker:none;visibility:visible;display:inline;overflow:visible;enable-background:accumulate"
         sodipodi:type="arc" />
      <path
         transform="matrix(0.29971456,0,0,0.31969551,-648.29296,187.76068)"
         d="m 6.122448,684.0816 c 0,33.81336 -29.238547,61.2245 -65.306122,61.2245 -36.067575,0 -65.306126,-27.41114 -65.306126,-61.2245 0,-33.81335 29.238551,-61.22449 65.306126,-61.22449 36.067575,0 65.306122,27.41114 65.306122,61.22449 z"
         sodipodi:ry="61.224491"
         sodipodi:rx="65.306122"
         sodipodi:cy="684.0816"
         sodipodi:cx="-59.183674"
         id="path3079-77-9-46"
         style="color:#000000;fill:#808080;fill-opacity:1;fill-rule:nonzero;stroke:none;stroke-width:0.81824785;marker:none;visibility:visible;display:inline;overflow:visible;enable-background:accumulate"
         sodipodi:type="arc" />
      <path
         transform="matrix(0.29971456,0,0,0.31969551,-602.76898,205.014)"
         d="m 6.122448,684.0816 c 0,33.81336 -29.238547,61.2245 -65.306122,61.2245 -36.067575,0 -65.306126,-27.41114 -65.306126,-61.2245 0,-33.81335 29.238551,-61.22449 65.306126,-61.22449 36.067575,0 65.306122,27.41114 65.306122,61.22449 z"
         sodipodi:ry="61.224491"
         sodipodi:rx="65.306122"
         sodipodi:cy="684.0816"
         sodipodi:cx="-59.183674"
         id="path3079-77-9-4-07"
         style="color:#000000;fill:#b3b3b3;fill-opacity:1;fill-rule:nonzero;stroke:none;stroke-width:0.81824785;marker:none;visibility:visible;display:inline;overflow:visible;enable-background:accumulate"
         sodipodi:type="arc" />
      <path
         transform="matrix(0.29971456,0,0,0.31969551,-606.78396,154.82631)"
         d="m 6.122448,684.0816 c 0,33.81336 -29.238547,61.2245 -65.306122,61.2245 -36.067575,0 -65.306126,-27.41114 -65.306126,-61.2245 0,-33.81335 29.238551,-61.22449 65.306126,-61.22449 36.067575,0 65.306122,27.41114 65.306122,61.22449 z"
         sodipodi:ry="61.224491"
         sodipodi:rx="65.306122"
         sodipodi:cy="684.0816"
         sodipodi:cx="-59.183674"
         id="path3079-77-9-2-17"
         style="color:#000000;fill:#808080;fill-opacity:1;fill-rule:nonzero;stroke:none;stroke-width:0.81824785;marker:none;visibility:visible;display:inline;overflow:visible;enable-background:accumulate"
         sodipodi:type="arc" />
      <path
         transform="matrix(0.29971456,0,0,0.31969551,-313.03926,258.02344)"
         d="m 6.122448,684.0816 c 0,33.81336 -29.238547,61.2245 -65.306122,61.2245 -36.067575,0 -65.306126,-27.41114 -65.306126,-61.2245 0,-33.81335 29.238551,-61.22449 65.306126,-61.22449 36.067575,0 65.306122,27.41114 65.306122,61.22449 z"
         sodipodi:ry="61.224491"
         sodipodi:rx="65.306122"
         sodipodi:cy="684.0816"
         sodipodi:cx="-59.183674"
         id="path3079-77-9-7"
         style="color:#000000;fill:#999999;fill-opacity:1;fill-rule:nonzero;stroke:none;stroke-width:0.81824785;marker:none;visibility:visible;display:inline;overflow:visible;enable-background:accumulate"
         sodipodi:type="arc" />
      <path
         transform="matrix(0.29971456,0,0,0.31969551,-265.50777,295.35183)"
         d="m 6.122448,684.0816 c 0,33.81336 -29.238547,61.2245 -65.306122,61.2245 -36.067575,0 -65.306126,-27.41114 -65.306126,-61.2245 0,-33.81335 29.238551,-61.22449 65.306126,-61.22449 36.067575,0 65.306122,27.41114 65.306122,61.22449 z"
         sodipodi:ry="61.224491"
         sodipodi:rx="65.306122"
         sodipodi:cy="684.0816"
         sodipodi:cx="-59.183674"
         id="path3079-77-9-4-7"
         style="color:#000000;fill:#999999;fill-opacity:1;fill-rule:nonzero;stroke:none;stroke-width:0.81824785;marker:none;visibility:visible;display:inline;overflow:visible;enable-background:accumulate"
         sodipodi:type="arc" />
      <path
         transform="matrix(0.29971456,0,0,0.31969551,-271.53026,225.08907)"
         d="m 6.122448,684.0816 c 0,33.81336 -29.238547,61.2245 -65.306122,61.2245 -36.067575,0 -65.306126,-27.41114 -65.306126,-61.2245 0,-33.81335 29.238551,-61.22449 65.306126,-61.22449 36.067575,0 65.306122,27.41114 65.306122,61.22449 z"
         sodipodi:ry="61.224491"
         sodipodi:rx="65.306122"
         sodipodi:cy="684.0816"
         sodipodi:cx="-59.183674"
         id="path3079-77-9-2-7"
         style="color:#000000;fill:#999999;fill-opacity:1;fill-rule:nonzero;stroke:none;stroke-width:0.81824785;marker:none;visibility:visible;display:inline;overflow:visible;enable-background:accumulate"
         sodipodi:type="arc" />
    </g>
    <g
       id="g3445"
       transform="matrix(1.441245,0,0,1.441245,-9.3379886,181.94706)">
      <path
         style="color:#000000;fill:#ff8f00;fill-opacity:1;fill-rule:nonzero;stroke:none;stroke-width:0.44999999;marker:none;visibility:visible;display:inline;overflow:visible;enable-background:accumulate"
         d="m 216.48463,44.120292 c -33.63237,-19.431523 -76.64859,-7.919406 -96.07998,25.712734 -19.43137,33.632104 -7.91965,76.648434 25.71272,96.079954 33.63212,19.43138 76.6486,7.91941 96.07998,-25.71269 19.43139,-33.63214 7.9194,-76.648618 -25.71272,-96.079998 z m -9.66355,24.995259 c 25.32287,14.630604 33.99093,47.019589 19.36025,72.342589 -14.6307,25.32304 -47.01979,33.99075 -72.34266,19.36015 -25.32312,-14.63076 -33.9909,-47.01959 -19.36019,-72.342631 14.63068,-25.322999 47.01948,-33.990863 72.3426,-19.360108 z"
         id="path3847-1-5-5-8-5"
         inkscape:connector-curvature="0" />
      <path
         style="color:#000000;fill:#ff8f00;fill-opacity:1;fill-rule:nonzero;stroke:none;stroke-width:0.44999999;marker:none;visibility:visible;display:inline;overflow:visible;enable-background:accumulate"
         d="m 137.80744,164.67551 c 26.90564,15.54507 61.31886,6.33554 76.86397,-20.57018 15.54512,-26.90571 6.33547,-61.318904 -20.57016,-76.863976 -26.90591,-15.545224 -61.31886,-6.335532 -76.86398,20.570179 -15.54511,26.905707 -6.33573,61.318747 20.57017,76.863977 z m 7.73057,-19.99637 C 125.27956,132.97457 118.34545,107.06353 130.04999,86.805145 141.75453,66.546763 167.6655,59.612358 187.92395,71.31693 c 20.25846,11.704582 27.19283,37.6158 15.48829,57.87418 -11.70454,20.25839 -37.61577,27.19261 -57.87423,15.48803 z"
         id="path3847-1-5-5-8-3-3"
         inkscape:connector-curvature="0" />
      <path
         style="color:#000000;fill:#ff8f00;fill-opacity:1;fill-rule:nonzero;stroke:none;stroke-width:0.44999999;marker:none;visibility:visible;display:inline;overflow:visible;enable-background:accumulate"
         d="m 180.14781,66.399479 c -22.4215,-12.954301 -51.09904,-5.279608 -64.05331,17.141823 -12.95425,22.421418 -5.2797,51.099018 17.14179,64.053318 22.42122,12.95414 51.09907,5.2796 64.05333,-17.14182 12.95426,-22.42143 5.2794,-51.099181 -17.14181,-64.053321 z m -6.44247,16.663479 c 16.88209,9.753838 22.66052,31.346332 12.90674,48.228312 -9.75382,16.88205 -31.34625,22.66066 -48.22833,12.90683 -16.88209,-9.75384 -22.66054,-31.34633 -12.90673,-48.228377 9.75378,-16.881983 31.34624,-22.660604 48.22832,-12.906765 z"
         id="path3847-1-5-5-8-7-2"
         inkscape:connector-curvature="0" />
      <path
         style="color:#000000;fill:#ff8f00;fill-opacity:1;fill-rule:nonzero;stroke:none;stroke-width:0.44999999;marker:none;visibility:visible;display:inline;overflow:visible;enable-background:accumulate"
         d="m 174.40432,91.96081 c -15.69501,-9.067988 -35.76934,-3.695725 -44.83733,11.99927 -9.06797,15.69499 -3.69574,35.76934 11.99927,44.83733 15.69475,9.06784 35.76936,3.69572 44.83733,-11.99926 9.06799,-15.695 3.69548,-35.7695 -11.99927,-44.83734 z m -4.50973,11.66439 c 11.8174,6.82766 15.86244,21.9425 9.03479,33.75989 -6.82766,11.81742 -21.94253,15.8624 -33.75993,9.03475 -11.81741,-6.82766 -15.86244,-21.94251 -9.03478,-33.75993 6.82765,-11.81739 21.94251,-15.862361 33.75992,-9.03471 z"
         id="path3847-1-5-5-8-2-2"
         inkscape:connector-curvature="0" />
    </g>
    <path
       d="m 79,371.36218 a 50,48 0 1 1 -100,0 50,48 0 1 1 100,0 z"
       sodipodi:ry="48"
       sodipodi:rx="50"
       sodipodi:cy="371.36218"
       sodipodi:cx="29"
       id="path3847-1-5-5-4-2-6"
       style="color:#000000;fill:#3ec745;fill-opacity:1;fill-rule:nonzero;stroke:none;stroke-width:0.44999999;marker:none;visibility:visible;display:inline;overflow:visible;enable-background:accumulate"
       sodipodi:type="arc"
       transform="matrix(0.76083741,0,0,0.79253903,565.8184,324.68727)" />
    <g
       id="g3456"
       transform="matrix(1.2851936,0,0,1.2851936,-64.895736,262.75084)">
      <path
         style="color:#000000;fill:#34b4da;fill-opacity:1;fill-rule:nonzero;stroke:none;stroke-width:0.44999999;marker:none;visibility:visible;display:inline;overflow:visible;enable-background:accumulate"
         d="m 443.49963,6.0185663 c -26.51663,0 -48.01264,21.4959857 -48.01264,48.0126347 0,26.516658 21.49601,48.012749 48.01264,48.012749 26.51685,0 48.01285,-21.496091 48.01285,-48.012749 0,-26.516649 -21.496,-48.0126347 -48.01285,-48.0126347 z m 9.60253,10.1673857 c 17.46998,0 31.63201,14.162063 31.63201,31.631865 0,17.469771 -14.16203,31.631834 -31.63201,31.631834 -17.46977,0 -31.63179,-14.162063 -31.63179,-31.631834 0,-17.469802 14.16202,-31.631865 31.63179,-31.631865 z"
         id="path3013-6-9-5"
         inkscape:connector-curvature="0" />
      <path
         style="color:#000000;fill:#34b4da;fill-opacity:1;fill-rule:nonzero;stroke:none;stroke-width:0.44999999;marker:none;visibility:visible;display:inline;overflow:visible;enable-background:accumulate"
         d="m 450.96826,14.526784 c 17.67783,0 32.00865,14.330664 32.00865,32.008434 0,17.677759 -14.33082,32.008423 -32.00865,32.008423 -17.67782,0 -32.00842,-14.330664 -32.00842,-32.008423 0,-17.67777 14.3306,-32.008434 32.00842,-32.008434 z m -6.40168,6.778258 c -11.64658,0 -21.0878,9.441375 -21.0878,21.08792 0,11.646493 9.44122,21.087879 21.0878,21.087879 11.64659,0 21.088,-9.441386 21.088,-21.087879 0,-11.646545 -9.44141,-21.08792 -21.088,-21.08792 z"
         id="path3013-6-9-3-2"
         inkscape:connector-curvature="0" />
      <path
         style="color:#000000;fill:#34b4da;fill-opacity:1;fill-rule:nonzero;stroke:none;stroke-width:0.44999999;marker:none;visibility:visible;display:inline;overflow:visible;enable-background:accumulate"
         d="m 439.23184,20.928473 c -12.37445,0 -22.4059,10.031439 -22.4059,22.4059 0,12.374452 10.03145,22.40589 22.4059,22.40589 12.37446,0 22.4059,-10.031438 22.4059,-22.40589 0,-12.374461 -10.03144,-22.4059 -22.4059,-22.4059 z m 4.48118,4.744803 c 8.15255,0 14.76165,6.608946 14.76165,14.761496 0,8.15259 -6.6091,14.761557 -14.76165,14.761557 -8.15255,0 -14.76144,-6.608967 -14.76144,-14.761557 0,-8.15255 6.60889,-14.761496 14.76144,-14.761496 z"
         id="path3013-6-9-6-7"
         inkscape:connector-curvature="0" />
    </g>
    <path
       d="m 79,371.36218 a 50,48 0 1 1 -100,0 50,48 0 1 1 100,0 z"
       sodipodi:ry="48"
       sodipodi:rx="50"
       sodipodi:cy="371.36218"
       sodipodi:cx="29"
       id="path3847-1-5-5-77-9"
       style="color:#000000;fill:#34b4da;fill-opacity:1;fill-rule:nonzero;stroke:none;stroke-width:0.44999999;marker:none;visibility:visible;display:inline;overflow:visible;enable-background:accumulate"
       sodipodi:type="arc"
       transform="matrix(0.70572839,0,0,0.73513372,544.67923,-11.998287)" />
    <g
       id="g3451"
       transform="matrix(1.4831378,0,0,1.4831378,-105.65798,51.799862)">
      <path
         style="color:#000000;fill:#e6514e;fill-opacity:1;fill-rule:nonzero;stroke:none;stroke-width:0.44999999;marker:none;visibility:visible;display:inline;overflow:visible;enable-background:accumulate"
         d="m 434.82125,356.59265 c -31.08817,20.70694 -73.07588,12.29117 -93.78267,-18.79676 -20.70676,-31.08794 -12.29141,-73.07575 18.79678,-93.78266 31.08794,-20.7068 73.07591,-12.29118 93.78267,18.79674 20.70678,31.08794 12.29117,73.0759 -18.79678,93.78268 z m -25.48749,-3.81717 c 20.11571,-13.39849 25.56107,-40.56716 12.16255,-60.68292 -13.39852,-20.11572 -40.56715,-25.56112 -60.68284,-12.16263 -20.1157,13.39847 -25.56107,40.56711 -12.16256,60.68285 13.39852,20.11575 40.56716,25.56117 60.68285,12.1627 z"
         id="path3013-6-5"
         inkscape:connector-curvature="0" />
      <path
         style="color:#000000;fill:#e6514e;fill-opacity:1;fill-rule:nonzero;stroke:none;stroke-width:0.44999999;marker:none;visibility:visible;display:inline;overflow:visible;enable-background:accumulate"
         d="m 415.04128,359.43027 c 21.41609,-14.26466 27.21355,-43.1897 12.94887,-64.60585 -14.26465,-21.41615 -43.18972,-27.21354 -64.60584,-12.94889 -21.41638,14.26482 -27.21355,43.18971 -12.94889,64.60584 14.26468,21.41615 43.18948,27.21372 64.60586,12.9489 z m 4.33966,-17.21509 c -13.85754,9.2301 -32.57367,5.47881 -41.80374,-8.3787 -9.2301,-13.85753 -5.47887,-32.57367 8.37864,-41.80376 13.85754,-9.2301 32.57365,-5.47883 41.80376,8.37871 9.23007,13.85751 5.47887,32.57366 -8.37866,41.80375 z"
         id="path3013-6-09-4"
         inkscape:connector-curvature="0" />
      <path
         style="color:#000000;fill:#e6514e;fill-opacity:1;fill-rule:nonzero;stroke:none;stroke-width:0.44999999;marker:none;visibility:visible;display:inline;overflow:visible;enable-background:accumulate"
         d="m 412.96391,342.75556 c -12.43527,8.28276 -29.23035,4.91646 -37.51306,-7.51871 -8.28271,-12.43517 -4.91658,-29.2303 7.5187,-37.51309 12.43503,-8.28259 29.23035,-4.91644 37.51305,7.51873 8.28273,12.43518 4.91634,29.23045 -7.51869,37.51307 z m -10.195,-1.52689 c 8.04618,-5.35932 10.2244,-16.2268 4.86498,-24.27311 -5.35942,-8.04629 -16.22691,-10.22441 -24.2731,-4.86509 -8.04644,5.35949 -10.22436,16.22681 -4.86496,24.27312 5.35941,8.04631 16.22664,10.22458 24.27308,4.86508 z"
         id="path3013-6-7-2"
         inkscape:connector-curvature="0" />
    </g>
    <path
       d="m 79,371.36218 a 50,48 0 1 1 -100,0 50,48 0 1 1 100,0 z"
       sodipodi:ry="48"
       sodipodi:rx="50"
       sodipodi:cy="371.36218"
       sodipodi:cx="29"
       id="path3847-1-5-5-75-6-7-2-5"
       style="color:#000000;fill:#ff8f00;fill-opacity:1;fill-rule:nonzero;stroke:none;stroke-width:0.44999999;marker:none;visibility:visible;display:inline;overflow:visible;enable-background:accumulate"
       sodipodi:type="arc"
       transform="matrix(0.75659092,0.43712994,-0.45534368,0.78811556,542.33504,73.868403)" />
    <g
       id="g3489"
       transform="matrix(1.9974964,0,0,1.9974964,-75.605691,-155.98081)">
      <path
         style="color:#000000;fill:#3ec745;fill-opacity:1;fill-rule:nonzero;stroke:none;stroke-width:0.44999999;marker:none;visibility:visible;display:inline;overflow:visible;enable-background:accumulate"
         d="m 145.47093,339.36465 c -22.08212,0 -39.98325,17.9011 -39.98325,39.98326 0,22.08214 17.90113,39.98325 39.98325,39.98325 22.08213,0 39.98325,-17.90111 39.98325,-39.98325 0,-22.08216 -17.90112,-39.98326 -39.98325,-39.98326 z m -7.08521,17.46328 c 12.7296,0 23.04919,10.31945 23.04919,23.04915 0,12.72971 -10.31959,23.04918 -23.04919,23.04918 -12.72977,0 -23.04918,-10.31947 -23.04918,-23.04918 0,-12.7297 10.31941,-23.04915 23.04918,-23.04915 z"
         id="path3847-1-5-11"
         inkscape:connector-curvature="0" />
      <path
         style="color:#000000;fill:#3ec745;fill-opacity:1;fill-rule:nonzero;stroke:none;stroke-width:0.44999999;marker:none;visibility:visible;display:inline;overflow:visible;enable-background:accumulate"
         d="m 132.97625,352.78068 c 13.73985,0 24.87847,11.13847 24.87847,24.87847 0,13.74 -11.13862,24.87847 -24.87847,24.87847 -13.74002,0 -24.87846,-11.13847 -24.87846,-24.87847 0,-13.74 11.13844,-24.87847 24.87846,-24.87847 z m 4.40847,10.86605 c -7.92059,0 -14.34173,6.42098 -14.34173,14.34169 0,7.92071 6.42114,14.34171 14.34173,14.34171 7.92077,0 14.34172,-6.421 14.34172,-14.34171 0,-7.92071 -6.42095,-14.34169 -14.34172,-14.34169 z"
         id="path3847-1-5-1-6"
         inkscape:connector-curvature="0" />
      <path
         style="color:#000000;fill:#3ec745;fill-opacity:1;fill-rule:nonzero;stroke:none;stroke-width:0.44999999;marker:none;visibility:visible;display:inline;overflow:visible;enable-background:accumulate"
         d="m 136.63072,365.35574 c -9.06762,0 -16.41811,7.35064 -16.41811,16.41813 0,9.06749 7.35049,16.41813 16.41811,16.41813 9.06741,0 16.41812,-7.35064 16.41812,-16.41813 0,-9.06749 -7.35071,-16.41813 -16.41812,-16.41813 z m -2.90951,7.17087 c 5.22709,0 9.4645,4.23741 9.4645,9.46454 0,5.22715 -4.23741,9.46458 -9.4645,9.46458 -5.22709,0 -9.46451,-4.23743 -9.46451,-9.46458 0,-5.22713 4.23742,-9.46454 9.46451,-9.46454 z"
         id="path3847-1-5-54-1"
         inkscape:connector-curvature="0" />
    </g>
    <path
       d="m 79,371.36218 a 50,48 0 1 1 -100,0 50,48 0 1 1 100,0 z"
       sodipodi:ry="48"
       sodipodi:rx="50"
       sodipodi:cy="371.36218"
       sodipodi:cx="29"
       id="path3847-1-5-5-4-2-6-7"
       style="color:#000000;fill:#3ec745;fill-opacity:1;fill-rule:nonzero;stroke:none;stroke-width:0.44999999;marker:none;visibility:visible;display:inline;overflow:visible;enable-background:accumulate"
       sodipodi:type="arc"
       transform="matrix(0.75587611,0,0,0.78737096,235.22988,184.76712)" />
    <path
       d="m 79,371.36218 a 50,48 0 1 1 -100,0 50,48 0 1 1 100,0 z"
       sodipodi:ry="48"
       sodipodi:rx="50"
       sodipodi:cy="371.36218"
       sodipodi:cx="29"
       id="path3847-1-5-5-77-9-1-1"
       style="color:#000000;fill:#34b4da;fill-opacity:1;fill-rule:nonzero;stroke:none;stroke-width:0.44999999;marker:none;visibility:visible;display:inline;overflow:visible;enable-background:accumulate"
       sodipodi:type="arc"
       transform="matrix(0.64528825,0,0,0.67217522,302.17396,382.12816)" />
    <path
       d="m 79,371.36218 a 50,48 0 1 1 -100,0 50,48 0 1 1 100,0 z"
       sodipodi:ry="48"
       sodipodi:rx="50"
       sodipodi:cy="371.36218"
       sodipodi:cx="29"
       id="path3847-1-5-5-75-6-6-5"
       style="color:#000000;fill:#ff8f00;fill-opacity:1;fill-rule:nonzero;stroke:none;stroke-width:0.44999999;marker:none;visibility:visible;display:inline;overflow:visible;enable-background:accumulate"
       sodipodi:type="arc"
       transform="matrix(0.79487743,0.45925048,-0.47838589,0.82799735,664.10124,355.87088)" />
    <path
       d="m 79,371.36218 a 50,48 0 1 1 -100,0 50,48 0 1 1 100,0 z"
       sodipodi:ry="48"
       sodipodi:rx="50"
       sodipodi:cy="371.36218"
       sodipodi:cx="29"
       id="path3847-1-5-5-1-0-8-1-2-6-1"
       style="color:#000000;fill:#e6514e;fill-opacity:1;fill-rule:nonzero;stroke:none;stroke-width:0.44999999;marker:none;visibility:visible;display:inline;overflow:visible;enable-background:accumulate"
       sodipodi:type="arc"
       transform="matrix(0.64774176,-0.43144208,-0.44941882,-0.67473102,560.36427,892.94658)" />
  </g>
</svg>
